<mxfile host="app.diagrams.net" modified="2023-05-30T13:55:41.986Z" agent="Mozilla/5.0 (Windows NT 10.0; Win64; x64) AppleWebKit/537.36 (KHTML, like Gecko) Chrome/113.0.0.0 Safari/537.36" etag="81tARseVsnktJf2S1_NH" version="21.3.5" type="github">
  <diagram name="Page-1" id="izyPC3DllFYI0m-khQM2">
    <mxGraphModel dx="996" dy="429" grid="1" gridSize="10" guides="1" tooltips="1" connect="1" arrows="1" fold="1" page="1" pageScale="1" pageWidth="850" pageHeight="1100" math="0" shadow="0">
      <root>
        <mxCell id="0" />
        <mxCell id="1" parent="0" />
        <mxCell id="dKtw__6F8dgL1qdr8ua8-1" value="" style="rounded=0;whiteSpace=wrap;html=1;" vertex="1" parent="1">
          <mxGeometry x="20" y="50" width="800" height="380" as="geometry" />
        </mxCell>
        <mxCell id="dKtw__6F8dgL1qdr8ua8-2" value="" style="rounded=0;whiteSpace=wrap;html=1;" vertex="1" parent="1">
          <mxGeometry x="30" y="60" width="150" height="360" as="geometry" />
        </mxCell>
        <mxCell id="dKtw__6F8dgL1qdr8ua8-3" value="" style="rounded=0;whiteSpace=wrap;html=1;" vertex="1" parent="1">
          <mxGeometry x="210" y="60" width="390" height="150" as="geometry" />
        </mxCell>
        <mxCell id="dKtw__6F8dgL1qdr8ua8-4" value="" style="rounded=0;whiteSpace=wrap;html=1;" vertex="1" parent="1">
          <mxGeometry x="630" y="60" width="180" height="360" as="geometry" />
        </mxCell>
        <mxCell id="dKtw__6F8dgL1qdr8ua8-5" value="" style="rounded=0;whiteSpace=wrap;html=1;" vertex="1" parent="1">
          <mxGeometry x="210" y="215" width="390" height="205" as="geometry" />
        </mxCell>
        <mxCell id="dKtw__6F8dgL1qdr8ua8-6" value="" style="rounded=0;whiteSpace=wrap;html=1;" vertex="1" parent="1">
          <mxGeometry x="640" y="70" width="160" height="60" as="geometry" />
        </mxCell>
        <mxCell id="dKtw__6F8dgL1qdr8ua8-7" value="calender" style="text;html=1;strokeColor=none;fillColor=none;align=center;verticalAlign=middle;whiteSpace=wrap;rounded=0;" vertex="1" parent="1">
          <mxGeometry x="640" y="70" width="60" height="30" as="geometry" />
        </mxCell>
        <mxCell id="dKtw__6F8dgL1qdr8ua8-8" value="" style="rounded=0;whiteSpace=wrap;html=1;" vertex="1" parent="1">
          <mxGeometry x="640" y="140" width="160" height="110" as="geometry" />
        </mxCell>
        <mxCell id="dKtw__6F8dgL1qdr8ua8-9" value="events" style="text;html=1;strokeColor=none;fillColor=none;align=center;verticalAlign=middle;whiteSpace=wrap;rounded=0;" vertex="1" parent="1">
          <mxGeometry x="680" y="145" width="60" height="30" as="geometry" />
        </mxCell>
        <mxCell id="dKtw__6F8dgL1qdr8ua8-10" value="todays&#39;s date&lt;br&gt;" style="text;html=1;strokeColor=none;fillColor=none;align=center;verticalAlign=middle;whiteSpace=wrap;rounded=0;" vertex="1" parent="1">
          <mxGeometry x="640" y="100" width="140" height="30" as="geometry" />
        </mxCell>
        <mxCell id="dKtw__6F8dgL1qdr8ua8-11" value="" style="rounded=0;whiteSpace=wrap;html=1;" vertex="1" parent="1">
          <mxGeometry x="220" y="220" width="370" height="90" as="geometry" />
        </mxCell>
        <mxCell id="dKtw__6F8dgL1qdr8ua8-12" value="weekly open projects updated weekly." style="text;html=1;strokeColor=none;fillColor=none;align=center;verticalAlign=middle;whiteSpace=wrap;rounded=0;" vertex="1" parent="1">
          <mxGeometry x="220" y="220" width="110" height="80" as="geometry" />
        </mxCell>
        <mxCell id="dKtw__6F8dgL1qdr8ua8-13" value="" style="rounded=0;whiteSpace=wrap;html=1;" vertex="1" parent="1">
          <mxGeometry x="220" y="320" width="370" height="85" as="geometry" />
        </mxCell>
        <mxCell id="dKtw__6F8dgL1qdr8ua8-14" value="monthly open projects" style="text;html=1;strokeColor=none;fillColor=none;align=center;verticalAlign=middle;whiteSpace=wrap;rounded=0;" vertex="1" parent="1">
          <mxGeometry x="220" y="320" width="120" height="30" as="geometry" />
        </mxCell>
        <mxCell id="dKtw__6F8dgL1qdr8ua8-15" value="" style="rounded=0;whiteSpace=wrap;html=1;" vertex="1" parent="1">
          <mxGeometry x="340" y="225" width="240" height="80" as="geometry" />
        </mxCell>
        <mxCell id="dKtw__6F8dgL1qdr8ua8-16" value="" style="rounded=0;whiteSpace=wrap;html=1;" vertex="1" parent="1">
          <mxGeometry x="340" y="330" width="240" height="70" as="geometry" />
        </mxCell>
        <mxCell id="dKtw__6F8dgL1qdr8ua8-17" value="" style="rounded=0;whiteSpace=wrap;html=1;" vertex="1" parent="1">
          <mxGeometry x="215" y="70" width="165" height="130" as="geometry" />
        </mxCell>
        <mxCell id="dKtw__6F8dgL1qdr8ua8-18" value="daily assignment. queue track" style="text;html=1;strokeColor=none;fillColor=none;align=center;verticalAlign=middle;whiteSpace=wrap;rounded=0;" vertex="1" parent="1">
          <mxGeometry x="221" y="70" width="159" height="30" as="geometry" />
        </mxCell>
        <mxCell id="dKtw__6F8dgL1qdr8ua8-19" value="" style="rounded=0;whiteSpace=wrap;html=1;" vertex="1" parent="1">
          <mxGeometry x="390" y="70" width="200" height="130" as="geometry" />
        </mxCell>
        <mxCell id="dKtw__6F8dgL1qdr8ua8-20" value="selected task&amp;nbsp; repo link" style="text;html=1;strokeColor=none;fillColor=none;align=center;verticalAlign=middle;whiteSpace=wrap;rounded=0;" vertex="1" parent="1">
          <mxGeometry x="350" y="110" width="215" height="30" as="geometry" />
        </mxCell>
        <mxCell id="dKtw__6F8dgL1qdr8ua8-21" value="screenshot of final result" style="text;html=1;strokeColor=none;fillColor=none;align=center;verticalAlign=middle;whiteSpace=wrap;rounded=0;" vertex="1" parent="1">
          <mxGeometry x="362.5" y="150" width="195" height="30" as="geometry" />
        </mxCell>
        <mxCell id="dKtw__6F8dgL1qdr8ua8-22" value="DIAGRAM of notdone assignment" style="text;html=1;strokeColor=none;fillColor=none;align=center;verticalAlign=middle;whiteSpace=wrap;rounded=0;" vertex="1" parent="1">
          <mxGeometry x="210" y="110" width="180" height="30" as="geometry" />
        </mxCell>
        <mxCell id="dKtw__6F8dgL1qdr8ua8-23" value="broken into modules by student" style="text;html=1;strokeColor=none;fillColor=none;align=center;verticalAlign=middle;whiteSpace=wrap;rounded=0;" vertex="1" parent="1">
          <mxGeometry x="370" y="250" width="187.5" height="30" as="geometry" />
        </mxCell>
        <mxCell id="dKtw__6F8dgL1qdr8ua8-24" value="broken into modules by student and automatically pushed into weekly each module" style="text;html=1;strokeColor=none;fillColor=none;align=center;verticalAlign=middle;whiteSpace=wrap;rounded=0;" vertex="1" parent="1">
          <mxGeometry x="340" y="347.5" width="230" height="30" as="geometry" />
        </mxCell>
        <mxCell id="dKtw__6F8dgL1qdr8ua8-25" value="what a student will see" style="text;html=1;strokeColor=none;fillColor=none;align=center;verticalAlign=middle;whiteSpace=wrap;rounded=0;" vertex="1" parent="1">
          <mxGeometry x="50" y="20" width="190" height="30" as="geometry" />
        </mxCell>
        <mxCell id="dKtw__6F8dgL1qdr8ua8-26" value="" style="rounded=0;whiteSpace=wrap;html=1;" vertex="1" parent="1">
          <mxGeometry x="40" y="190" width="130" height="40" as="geometry" />
        </mxCell>
        <mxCell id="dKtw__6F8dgL1qdr8ua8-27" value="good practices for a topic" style="text;html=1;strokeColor=none;fillColor=none;align=center;verticalAlign=middle;whiteSpace=wrap;rounded=0;" vertex="1" parent="1">
          <mxGeometry x="47.5" y="200" width="110" height="30" as="geometry" />
        </mxCell>
        <mxCell id="dKtw__6F8dgL1qdr8ua8-28" value="" style="rounded=0;whiteSpace=wrap;html=1;" vertex="1" parent="1">
          <mxGeometry x="40" y="242.5" width="130" height="37.5" as="geometry" />
        </mxCell>
        <mxCell id="dKtw__6F8dgL1qdr8ua8-29" value="bad practices of a topic" style="text;html=1;strokeColor=none;fillColor=none;align=center;verticalAlign=middle;whiteSpace=wrap;rounded=0;" vertex="1" parent="1">
          <mxGeometry x="50" y="250" width="110" height="20" as="geometry" />
        </mxCell>
        <mxCell id="dKtw__6F8dgL1qdr8ua8-30" value="weekly module yes or no only." style="text;html=1;strokeColor=none;fillColor=none;align=center;verticalAlign=middle;whiteSpace=wrap;rounded=0;" vertex="1" parent="1">
          <mxGeometry x="221" y="160" width="159" height="30" as="geometry" />
        </mxCell>
        <mxCell id="dKtw__6F8dgL1qdr8ua8-31" value="" style="rounded=0;whiteSpace=wrap;html=1;" vertex="1" parent="1">
          <mxGeometry x="40" y="70" width="130" height="110" as="geometry" />
        </mxCell>
        <mxCell id="dKtw__6F8dgL1qdr8ua8-32" value="" style="rounded=0;whiteSpace=wrap;html=1;" vertex="1" parent="1">
          <mxGeometry x="50" y="75" width="105" height="50" as="geometry" />
        </mxCell>
        <mxCell id="dKtw__6F8dgL1qdr8ua8-33" value="student info" style="text;html=1;strokeColor=none;fillColor=none;align=center;verticalAlign=middle;whiteSpace=wrap;rounded=0;" vertex="1" parent="1">
          <mxGeometry x="95" y="85" width="60" height="30" as="geometry" />
        </mxCell>
        <mxCell id="dKtw__6F8dgL1qdr8ua8-34" value="" style="ellipse;whiteSpace=wrap;html=1;aspect=fixed;" vertex="1" parent="1">
          <mxGeometry x="55" y="80" width="40" height="40" as="geometry" />
        </mxCell>
        <mxCell id="dKtw__6F8dgL1qdr8ua8-35" value="photo" style="text;html=1;strokeColor=none;fillColor=none;align=center;verticalAlign=middle;whiteSpace=wrap;rounded=0;" vertex="1" parent="1">
          <mxGeometry x="45" y="85" width="60" height="30" as="geometry" />
        </mxCell>
        <mxCell id="dKtw__6F8dgL1qdr8ua8-36" value="" style="rounded=0;whiteSpace=wrap;html=1;" vertex="1" parent="1">
          <mxGeometry x="40" y="290" width="130" height="40" as="geometry" />
        </mxCell>
        <mxCell id="dKtw__6F8dgL1qdr8ua8-37" value="design is important for a responsive site." style="text;html=1;strokeColor=none;fillColor=none;align=center;verticalAlign=middle;whiteSpace=wrap;rounded=0;" vertex="1" parent="1">
          <mxGeometry x="40" y="295" width="130" height="30" as="geometry" />
        </mxCell>
        <mxCell id="dKtw__6F8dgL1qdr8ua8-40" value="" style="rounded=0;whiteSpace=wrap;html=1;" vertex="1" parent="1">
          <mxGeometry x="40" y="335" width="130" height="45" as="geometry" />
        </mxCell>
        <mxCell id="dKtw__6F8dgL1qdr8ua8-41" value="pool of major achievements by others" style="text;html=1;strokeColor=none;fillColor=none;align=center;verticalAlign=middle;whiteSpace=wrap;rounded=0;" vertex="1" parent="1">
          <mxGeometry x="40" y="342.5" width="130" height="30" as="geometry" />
        </mxCell>
        <mxCell id="dKtw__6F8dgL1qdr8ua8-43" value="" style="rounded=0;whiteSpace=wrap;html=1;" vertex="1" parent="1">
          <mxGeometry x="40" y="385" width="130" height="25" as="geometry" />
        </mxCell>
        <mxCell id="dKtw__6F8dgL1qdr8ua8-44" value="post your problem" style="text;html=1;strokeColor=none;fillColor=none;align=center;verticalAlign=middle;whiteSpace=wrap;rounded=0;" vertex="1" parent="1">
          <mxGeometry x="55" y="382.5" width="105" height="30" as="geometry" />
        </mxCell>
        <mxCell id="dKtw__6F8dgL1qdr8ua8-45" value="" style="rounded=0;whiteSpace=wrap;html=1;" vertex="1" parent="1">
          <mxGeometry x="640" y="260" width="160" height="140" as="geometry" />
        </mxCell>
        <mxCell id="dKtw__6F8dgL1qdr8ua8-46" value="bookmarked medium article" style="text;html=1;strokeColor=none;fillColor=none;align=center;verticalAlign=middle;whiteSpace=wrap;rounded=0;" vertex="1" parent="1">
          <mxGeometry x="660" y="265" width="130" height="30" as="geometry" />
        </mxCell>
      </root>
    </mxGraphModel>
  </diagram>
</mxfile>
